<svg width="30" height="30" viewBox="0 0 30 30" fill="none" xmlns="http://www.w3.org/2000/svg">
<path d="M14.7181 3C14.7181 2.44772 15.1659 2 15.7181 2C16.2703 2.00013 16.7181 2.4478 16.7181 3V18.5859L21.5111 13.793C21.9016 13.4027 22.5347 13.4025 22.9252 13.793C23.3156 14.1834 23.3154 14.8165 22.9252 15.207L16.4252 21.707C16.0346 22.0976 15.4016 22.0976 15.0111 21.707L8.51108 15.207L8.44175 15.1318C8.12133 14.7391 8.14494 14.1591 8.51108 13.793C8.87722 13.4271 9.45629 13.4043 9.84897 13.7246L9.92515 13.793L14.7181 18.5859V3Z" fill="white"/>
<path d="M2.65332 22C2.65332 21.4477 3.10104 21 3.65332 21C4.171 21 4.59711 21.3933 4.64844 21.8975L4.65332 22V26H26.793V22C26.793 21.4477 27.2407 21 27.793 21C28.3451 21.0002 28.793 21.4478 28.793 22V27C28.7928 27.5521 28.345 27.9998 27.793 28H3.65332C3.38811 28 3.13383 27.8946 2.94629 27.707C2.75875 27.5195 2.65332 27.2652 2.65332 27V22Z" fill="white"/>
</svg>
