<svg width="30" height="30" viewBox="0 0 30 30" fill="none" xmlns="http://www.w3.org/2000/svg">
<path fill-rule="evenodd" clip-rule="evenodd" d="M10.4999 3.3V5.1H19.4999V3.3H10.4999ZM21.2999 5.1V2.85C21.2999 2.10441 20.6955 1.5 19.9499 1.5H10.0499C9.30432 1.5 8.6999 2.10442 8.6999 2.85V5.1H3.2999C2.80285 5.1 2.3999 5.50294 2.3999 6C2.3999 6.49706 2.80285 6.9 3.2999 6.9H5.26091C5.26098 6.9509 5.2632 7.00224 5.26763 7.05395L6.9673 26.8539C7.04722 27.785 7.82627 28.5 8.7607 28.5H21.2391C22.1736 28.5 22.9526 27.785 23.0325 26.8539L24.7322 7.05395C24.7366 7.00224 24.7388 6.9509 24.7389 6.9H26.6999C27.197 6.9 27.5999 6.49706 27.5999 6C27.5999 5.50294 27.197 5.1 26.6999 5.1H21.2999ZM22.9388 6.9H7.06104L8.7607 26.7H21.2391L22.9388 6.9Z" fill="white"/>
<path fill-rule="evenodd" clip-rule="evenodd" d="M11.3253 11.4031C11.8206 11.3618 12.2556 11.7299 12.2969 12.2253L13.1969 23.0253C13.2382 23.5206 12.8701 23.9556 12.3748 23.9969C11.8794 24.0382 11.4444 23.6701 11.4031 23.1747L10.5031 12.3747C10.4619 11.8794 10.8299 11.4444 11.3253 11.4031Z" fill="white"/>
<path fill-rule="evenodd" clip-rule="evenodd" d="M17.6252 23.9969C17.1298 23.9556 16.7618 23.5206 16.803 23.0253L17.703 12.2253C17.7443 11.7299 18.1793 11.3618 18.6747 11.4031C19.17 11.4444 19.5381 11.8794 19.4968 12.3747L18.5968 23.1747C18.5555 23.6701 18.1205 24.0382 17.6252 23.9969Z" fill="white"/>
</svg>
