<svg width="30" height="30" viewBox="0 0 30 30" fill="none" xmlns="http://www.w3.org/2000/svg">
<path d="M16.7175 21C16.7175 21.5523 16.2697 22 15.7175 22C15.1653 21.9999 14.7175 21.5522 14.7175 21L14.7175 5.4141L9.92447 10.207C9.53397 10.5973 8.90087 10.5975 8.51037 10.207C8.11997 9.8166 8.12017 9.1835 8.51037 8.793L15.0104 2.293C15.401 1.9024 16.034 1.9024 16.4245 2.293L22.9245 8.793L22.9938 8.8682C23.3142 9.2609 23.2906 9.8409 22.9245 10.207C22.5583 10.5729 21.9793 10.5957 21.5866 10.2754L21.5104 10.207L16.7175 5.4141L16.7175 21Z" fill="white"/>
<path d="M2.65332 22C2.65332 21.4477 3.10104 21 3.65332 21C4.171 21 4.59711 21.3933 4.64844 21.8975L4.65332 22V26H26.793V22C26.793 21.4477 27.2407 21 27.793 21C28.3451 21.0002 28.793 21.4478 28.793 22V27C28.7928 27.5521 28.345 27.9998 27.793 28H3.65332C3.38811 28 3.13383 27.8946 2.94629 27.707C2.75875 27.5195 2.65332 27.2652 2.65332 27V22Z" fill="white"/>
</svg>
